<svg viewBox="0 0 64 64" xmlns="http://www.w3.org/2000/svg" xmlns:xlink="http://www.w3.org/1999/xlink"><linearGradient id="a" gradientTransform="matrix(-1 0 0 1 65.97 0)" gradientUnits="userSpaceOnUse" x1="46.72" x2="25.63" y1="46.39" y2="19.08"><stop offset="0" stop-color="#f2f2f2"/><stop offset="1" stop-color="#cfcfcf"/></linearGradient><linearGradient id="b" gradientTransform="matrix(0 -1 -1 0 149.19 -17.25)" gradientUnits="userSpaceOnUse" x1="-52.44" x2="-40.82" y1="96.91" y2="114.56"><stop offset=".02" stop-color="#fff"/><stop offset="1" stop-color="#fff" stop-opacity="0"/></linearGradient><path d="m23.66 9.9a17.49 17.49 0 0 1 15.47 9.32 13.75 13.75 0 1 1 6.87 25.62l-22.39.06a17.5 17.5 0 0 1 0-35z" fill="url(#a)"/><circle cx="46.05" cy="31.09" fill="url(#b)" r="13.75" transform="matrix(.26908792 -.96311562 .96311562 .26908792 3.72 67.08)"/><g fill="none" stroke="#9c9fa0" stroke-linecap="round" stroke-miterlimit="10" stroke-width="2"><path d="m32.13 27.1v10.13"/><path d="m33.3 25.79-1.17 1.47-1.18-1.47"/><path d="m30.95 38.55 1.18-1.47 1.17 1.47"/><path d="m36.51 29.63-8.77 5.07"/><path d="m38.24 30-1.86-.29.68-1.75"/><path d="m26.01 34.34 1.86.28-.68 1.76"/><path d="m36.51 34.7-8.77-5.07"/><path d="m37.06 36.38-.68-1.76 1.86-.28"/><path d="m27.19 27.96.68 1.75-1.86.29"/></g><circle cx="26.5" cy="52.63" fill="#c4c4c4" r="2"/><circle cx="36.5" cy="55.63" fill="#e0e0e0" r="1.5"/><circle cx="18.5" cy="48.63" fill="#e0e0e0" r="1.5"/><circle cx="32.5" cy="48.63" fill="#fff" r="1"/><circle cx="46.5" cy="55.63" fill="#fff" r="1"/><circle cx="17.5" cy="55.63" fill="#fff" r="1"/><circle cx="42.5" cy="49.63" fill="#c4c4c4" r="2"/></svg>