<svg viewBox="0 0 64 64" xmlns="http://www.w3.org/2000/svg" xmlns:xlink="http://www.w3.org/1999/xlink"><linearGradient id="a" gradientTransform="matrix(-1 0 0 1 -82.03 0)" gradientUnits="userSpaceOnUse" x1="-101.28" x2="-122.37" y1="46.39" y2="19.08"><stop offset="0" stop-color="#f2f2f2"/><stop offset="1" stop-color="#cfcfcf"/></linearGradient><linearGradient id="b" gradientTransform="matrix(0 -1 -1 0 137.46 -102.8)" gradientUnits="userSpaceOnUse" x1="-137.98" x2="-126.37" y1="85.19" y2="102.84"><stop offset=".02" stop-color="#fff"/><stop offset="1" stop-color="#fff" stop-opacity="0"/></linearGradient><g fill="none" stroke="#0baeff" stroke-linecap="round" stroke-miterlimit="10" stroke-width="3"><path d="m32.5 50.5v1"/><path d="m26.5 48.5v1"/><path d="m38.5 48.5v1"/><path d="m38.5 54.5v1"/><path d="m26.5 54.5v1"/><path d="m32.5 56.5v1"/></g><path d="m23.66 9.9a17.49 17.49 0 0 1 15.47 9.32 13.75 13.75 0 1 1 6.87 25.62l-22.39.06a17.5 17.5 0 0 1 0-35z" fill="url(#a)"/><circle cx="46.05" cy="31.09" fill="url(#b)" r="13.75" transform="matrix(.26908792 -.96311562 .96311562 .26908792 3.72 67.08)"/></svg>