<svg viewBox="0 0 64 64" xmlns="http://www.w3.org/2000/svg" xmlns:xlink="http://www.w3.org/1999/xlink"><linearGradient id="a" gradientTransform="matrix(-1 0 0 1 -674.03 0)" gradientUnits="userSpaceOnUse" x1="-693.28" x2="-714.37" y1="46.39" y2="19.08"><stop offset="0" stop-color="#f2f2f2"/><stop offset="1" stop-color="#cfcfcf"/></linearGradient><linearGradient id="b" gradientTransform="matrix(0 -1 -1 0 57.83 -683.88)" gradientUnits="userSpaceOnUse" x1="-719.07" x2="-707.45" y1="5.56" y2="23.2"><stop offset=".02" stop-color="#fff"/><stop offset="1" stop-color="#fff" stop-opacity="0"/></linearGradient><path d="m23.66 9.9a17.49 17.49 0 0 1 15.47 9.32 13.75 13.75 0 1 1 6.87 25.62l-22.39.06a17.5 17.5 0 0 1 0-35z" fill="url(#a)"/><circle cx="46.05" cy="31.09" fill="url(#b)" r="13.75" transform="matrix(.26908792 -.96311562 .96311562 .26908792 3.72 67.08)"/><g fill="none" stroke-linecap="round" stroke-miterlimit="10" stroke-width="3"><path d="m43.53 40.5a2.5 2.5 0 0 1 2.47 2.5 2.5 2.5 0 0 1 -2.5 2.5h-21a3 3 0 0 0 -3 3 3 3 0 0 0 3 3h19.75a2 2 0 0 1 2 2v.08a2 2 0 0 1 -2 2h-1.75" stroke="#a5a9aa"/><path d="m51.5 53.5a2 2 0 0 0 2-2 2 2 0 0 0 -2-2h-4" stroke="#b9c1c6"/></g></svg>