<svg viewBox="0 0 64 64" xmlns="http://www.w3.org/2000/svg" xmlns:xlink="http://www.w3.org/1999/xlink"><linearGradient id="a" gradientTransform="matrix(-1 0 0 1 -526.2 0)" gradientUnits="userSpaceOnUse" x1="-548.53" x2="-567.27" y1="42.44" y2="18.16"><stop offset="0" stop-color="#cecece"/><stop offset="1" stop-color="#ababab"/></linearGradient><linearGradient id="b" gradientTransform="matrix(1 0 0 -1 591.84 68.79)" x1="-541.43" x2="-570.92" xlink:href="#a" y1="34.74" y2="26.31"/><linearGradient id="c" gradientTransform="matrix(0 1 1 0 57.06 679.53)" gradientUnits="userSpaceOnUse" x1="-646.21" x2="-635.89" y1="-44.11" y2="-28.42"><stop offset=".02" stop-color="#bababa"/><stop offset="1" stop-color="#828282" stop-opacity="0"/></linearGradient><linearGradient id="d" gradientTransform="matrix(0 -1 -1 0 4.96 -611.97)" gradientUnits="userSpaceOnUse" x1="-644.44" x2="-634.12" y1="-46.73" y2="-31.04"><stop offset=".02" stop-color="#9c9c9c"/><stop offset=".99" stop-color="#a1a1a1" stop-opacity="0"/></linearGradient><path d="m26.26 10a15.54 15.54 0 0 1 13.74 8.29 12.22 12.22 0 1 1 6.15 22.77l-19.89.05a15.55 15.55 0 1 1 0-31.11z" fill="url(#a)"/><path d="m38.38 55.79a15.54 15.54 0 0 1 -13.75-8.29 12.22 12.22 0 1 1 -6.15-22.77l19.89-.05a15.55 15.55 0 0 1 0 31.11z" fill="url(#b)"/><circle cx="18.49" cy="36.96" fill="url(#c)" r="12.22" transform="matrix(.26908792 -.96311562 .96311562 .26908792 -22.08 44.82)"/><circle cx="46.15" cy="28.83" fill="url(#d)" r="12.22" transform="matrix(.26908792 -.96311562 .96311562 .26908792 5.97 65.53)"/><g fill="#fff"><path d="m27.88 38.15a7.2 7.2 0 0 1 -2.87.48c-3.86 0-5.85-2.4-5.85-5.58 0-3.81 2.72-5.93 6.09-5.93a6.58 6.58 0 0 1 2.75.5l-.51 2a5.43 5.43 0 0 0 -2.12-.41 3.36 3.36 0 0 0 -3.56 3.69 3.33 3.33 0 0 0 3.58 3.64 6.28 6.28 0 0 0 2.1-.36z"/><path d="m39.26 32.77c0 3.66-2.22 5.88-5.48 5.88s-5.25-2.5-5.25-5.68c0-3.35 2.14-5.85 5.43-5.85s5.3 2.57 5.3 5.65zm-8.06.15c0 2.19 1 3.73 2.72 3.73s2.68-1.65 2.68-3.8c0-2-1-3.73-2.7-3.73s-2.7 1.63-2.7 3.8z"/><path d="m40.53 40.63v-1.1l1-.9c1.69-1.51 2.51-2.38 2.53-3.28 0-.63-.38-1.13-1.27-1.13a2.8 2.8 0 0 0 -1.65.64l-.51-1.29a4.28 4.28 0 0 1 2.53-.8 2.4 2.4 0 0 1 2.71 2.42c0 1.29-.94 2.33-2.05 3.32l-.71.59h2.89v1.48z"/></g></svg>