<svg viewBox="0 0 64 64" xmlns="http://www.w3.org/2000/svg" xmlns:xlink="http://www.w3.org/1999/xlink"><linearGradient id="a" gradientTransform="matrix(-1 0 0 1 -674.03 0)" gradientUnits="userSpaceOnUse" x1="-693.28" x2="-714.37" y1="52.39" y2="25.08"><stop offset="0" stop-color="#f2f2f2"/><stop offset="1" stop-color="#cfcfcf"/></linearGradient><linearGradient id="b" gradientTransform="matrix(0 -1 -1 0 55.42 -739.22)" gradientUnits="userSpaceOnUse" x1="-780.41" x2="-768.79" y1="3.15" y2="20.8"><stop offset=".02" stop-color="#fff"/><stop offset="1" stop-color="#fff" stop-opacity="0"/></linearGradient><path d="m50 20.71a13.88 13.88 0 0 1 -12.14-17.94.6.6 0 0 0 -.86-.69 13.88 13.88 0 1 0 18.92 18.92.6.6 0 0 0 -.69-.89 13.91 13.91 0 0 1 -5.23.6z" fill="#efcc00"/><path d="m23.66 15.9a17.49 17.49 0 0 1 15.47 9.32 13.75 13.75 0 1 1 6.87 25.62l-22.39.06a17.5 17.5 0 0 1 0-35z" fill="url(#a)"/><circle cx="46.05" cy="37.09" fill="url(#b)" r="13.75" transform="matrix(.26908792 -.96311562 .96311562 .26908792 -2.06 71.46)"/><g fill="none" stroke-linecap="round" stroke-miterlimit="10" stroke-width="3"><path d="m37.84 54.5h10.22" stroke="#a5a9aa"/><path d="m15.94 54.5h16.8" stroke="#b9c1c6"/><path d="m33.23 59.5h11.32" stroke="#a5a9aa"/><path d="m19.96 59.5h7.69" stroke="#a5a9aa"/></g></svg>