<svg viewBox="0 0 64 64" xmlns="http://www.w3.org/2000/svg"><path d="m44.54 41.47a23 23 0 0 1 -20.05-29.74 1 1 0 0 0 -1.49-1.14 23 23 0 1 0 31.41 31.41 1 1 0 0 0 -1.14-1.47 23.06 23.06 0 0 1 -8.73.94z" fill="#efcc00"/><path d="m51.25 46.24c-4.84 0-10.82 0-11 0a20.18 20.18 0 0 1 -16-9.75h-12a23 23 0 0 0 39 9.74z" fill="#e0e0e0"/><g fill="none" stroke-linecap="round" stroke-miterlimit="10" stroke-width="3"><path d="m25.5 36.5h-14.67" stroke="#b9c1c6"/><path d="m9.54 41.5h9.68" stroke="#b9c1c6"/><path d="m7.85 46.5h46.01" stroke="#b9c1c6"/><path d="m34.49 51.5h21.16" stroke="#a5a9aa"/><path d="m11.85 51.5h15.45" stroke="#b9c1c6"/><path d="m26.4 56.5h19.35" stroke="#a5a9aa"/><path d="m15.64 56.5h4.48" stroke="#a5a9aa"/><path d="m24.61 41.5h6.28" stroke="#b9c1c6"/></g></svg>