<svg viewBox="0 0 64 64" xmlns="http://www.w3.org/2000/svg" xmlns:xlink="http://www.w3.org/1999/xlink"><linearGradient id="a" gradientTransform="matrix(-1 0 0 1 -230.03 0)" gradientUnits="userSpaceOnUse" x1="-249.28" x2="-270.37" y1="52.39" y2="25.08"><stop offset="0" stop-color="#f2f2f2"/><stop offset="1" stop-color="#cfcfcf"/></linearGradient><linearGradient id="b" gradientTransform="matrix(0 -1 -1 0 115.15 -303.41)" gradientUnits="userSpaceOnUse" x1="-344.59" x2="-332.98" y1="62.87" y2="80.52"><stop offset=".02" stop-color="#fff"/><stop offset="1" stop-color="#fff" stop-opacity="0"/></linearGradient><path d="m50 20.71a13.88 13.88 0 0 1 -12.14-17.94.6.6 0 0 0 -.86-.69 13.88 13.88 0 1 0 18.92 18.92.6.6 0 0 0 -.69-.89 13.91 13.91 0 0 1 -5.23.6z" fill="#efcc00"/><path d="m23.66 15.9a17.49 17.49 0 0 1 15.47 9.32 13.75 13.75 0 1 1 6.87 25.62l-22.39.06a17.5 17.5 0 0 1 0-35z" fill="url(#a)"/><circle cx="46.05" cy="37.09" fill="url(#b)" r="13.75" transform="matrix(.26908792 -.96311562 .96311562 .26908792 -2.06 71.46)"/><g fill="none" stroke="#9c9fa0" stroke-linecap="round" stroke-miterlimit="10" stroke-width="2"><path d="m32.13 32.1v10.13"/><path d="m33.3 30.79-1.17 1.47-1.18-1.47"/><path d="m30.95 43.55 1.18-1.47 1.17 1.47"/><path d="m36.51 34.63-8.77 5.07"/><path d="m38.24 35-1.86-.29.68-1.75"/><path d="m26.01 39.34 1.86.28-.68 1.76"/><path d="m36.51 39.7-8.77-5.07"/><path d="m37.06 41.38-.68-1.76 1.86-.28"/><path d="m27.19 32.96.68 1.75-1.86.29"/></g><circle cx="26.5" cy="57.63" fill="#c4c4c4" r="2"/><circle cx="36.5" cy="60.63" fill="#e0e0e0" r="1.5"/><circle cx="18.5" cy="53.63" fill="#e0e0e0" r="1.5"/><circle cx="32.5" cy="53.63" fill="#fff" r="1"/><circle cx="46.5" cy="60.63" fill="#fff" r="1"/><circle cx="17.5" cy="60.63" fill="#fff" r="1"/><circle cx="42.5" cy="54.63" fill="#c4c4c4" r="2"/></svg>