<svg viewBox="0 0 64 64" xmlns="http://www.w3.org/2000/svg" xmlns:xlink="http://www.w3.org/1999/xlink"><linearGradient id="a" gradientTransform="matrix(-1 0 0 1 65.97 0)" gradientUnits="userSpaceOnUse" x1="46.72" x2="25.63" y1="58.39" y2="31.08"><stop offset="0" stop-color="#f2f2f2"/><stop offset="1" stop-color="#cfcfcf"/></linearGradient><linearGradient id="b" gradientTransform="matrix(0 -1 -1 0 168.93 51.25)" gradientUnits="userSpaceOnUse" x1="4.06" x2="15.68" y1="116.66" y2="134.3"><stop offset=".02" stop-color="#fff"/><stop offset="1" stop-color="#fff" stop-opacity="0"/></linearGradient><path d="m50 26.71a13.88 13.88 0 0 1 -12.14-17.94.6.6 0 0 0 -.86-.69 13.88 13.88 0 1 0 18.92 18.92.6.6 0 0 0 -.69-.89 13.91 13.91 0 0 1 -5.23.6z" fill="#efcc00"/><path d="m23.66 21.9a17.49 17.49 0 0 1 15.47 9.32 13.75 13.75 0 1 1 6.87 25.62l-22.39.06a17.5 17.5 0 0 1 0-35z" fill="url(#a)"/><circle cx="46.05" cy="43.09" fill="url(#b)" r="13.75" transform="matrix(.26908792 -.96311562 .96311562 .26908792 -7.84 75.85)"/></svg>