<svg viewBox="0 0 64 64" xmlns="http://www.w3.org/2000/svg" xmlns:xlink="http://www.w3.org/1999/xlink"><linearGradient id="a" gradientUnits="userSpaceOnUse" x1="35.32" x2="55.9" y1="29.1" y2="19.2"><stop offset=".02" stop-color="#f7563c"/><stop offset="1" stop-color="#d43217"/></linearGradient><linearGradient id="b" x1="34.27" x2="55.92" xlink:href="#a" y1="36.02" y2="43.29"/><linearGradient id="c" x1="34.92" x2="28.67" xlink:href="#a" y1="25.59" y2="6.22"/><linearGradient id="d" x1="27.2" x2="40.76" xlink:href="#a" y1="41.33" y2="56.98"/><linearGradient id="e" x1="27.31" x2="8.96" xlink:href="#a" y1="30.74" y2="17.14"/><linearGradient id="f" x1="19.99" x2="16.77" xlink:href="#a" y1="34.9" y2="57.51"/><path d="m40.37 15.21a10.35 10.35 0 0 1 10.36 17.93c-4.95 2.86-13.88 2.66-16.73-2.29s1.42-12.78 6.37-15.64z" fill="url(#a)"/><path d="m50.73 30.86a10.35 10.35 0 1 1 -10.36 17.93c-5-2.86-9.25-10.69-6.39-15.64s11.8-5.15 16.75-2.29z" fill="url(#b)"/><path d="m42.35 16.35c0 5.72-4.64 13.35-10.35 13.35s-10.35-7.63-10.35-13.35a10.35 10.35 0 0 1 20.71 0z" fill="url(#c)"/><path d="m42.35 47.65a10.35 10.35 0 0 1 -20.71 0c0-5.72 4.64-13.35 10.35-13.35s10.36 7.63 10.36 13.35z" fill="url(#d)"/><path d="m23.63 15.21c5 2.86 9.25 10.69 6.39 15.64s-11.8 5.15-16.75 2.29a10.35 10.35 0 1 1 10.36-17.93z" fill="url(#e)"/><path d="m13.27 30.86c4.95-2.86 13.88-2.66 16.73 2.29s-1.44 12.78-6.39 15.64a10.35 10.35 0 0 1 -10.34-17.93z" fill="url(#f)"/><g fill="#efcc00"><circle cx="32" cy="32" r="10.35"/><circle cx="16" cy="21" r="2"/><circle cx="17" cy="50" r="2"/><circle cx="50" cy="15" r="2"/></g><circle cx="16" cy="9" fill="#fff" r="1.5"/><circle cx="6" cy="31" fill="#fff" r="1.5"/><circle cx="45" cy="8" fill="#fff" r="1.5"/></svg>