<svg viewBox="0 0 64 64" xmlns="http://www.w3.org/2000/svg"><path d="m50 38.36a18.5 18.5 0 0 1 -37 0c0-16.19 15-31.22 18.5-31.22s18.5 15.03 18.5 31.22z" fill="#0baeff"/><path d="m29.3 34.07c0 3.32-2.1 5.05-4.4 5.05s-4.32-1.81-4.32-4.79 1.73-5 4.44-5 4.28 2.03 4.28 4.74zm-6 .17c0 1.66.56 2.86 1.64 2.86s1.56-1.07 1.56-2.86c0-1.61-.44-2.86-1.59-2.86s-1.57 1.28-1.57 2.86zm19.7 6.43c0 3.32-2.1 5.05-4.4 5.05s-4.3-1.81-4.32-4.79 1.73-5 4.44-5 4.28 2.07 4.28 4.74zm-5.93.17c0 1.66.54 2.86 1.61 2.86s1.56-1.07 1.56-2.86c0-1.61-.42-2.86-1.56-2.86s-1.57 1.27-1.57 2.86z" fill="#e0e0e0"/><path d="m36.7 29.69-9.25 15.03" fill="none" stroke="#e0e0e0" stroke-linecap="round" stroke-linejoin="round" stroke-width="2"/></svg>