<svg viewBox="0 0 64 64" xmlns="http://www.w3.org/2000/svg"><g fill="none" stroke="#b9c1c6" stroke-linecap="round" stroke-miterlimit="10" stroke-width="3"><path d="m32 14.5v35"/><path d="m36.07 9.96-4.07 5.08-4.07-5.08"/><path d="m27.93 54.04 4.07-5.08 4.07 5.08"/><path d="m44.37 19.63-24.74 24.74"/><path d="m50.46 19.3-6.46.7.7-6.46"/><path d="m13.54 44.7 6.46-.7-.7 6.46"/><path d="m49.5 32h-35"/><path d="m54.04 36.07-5.08-4.07 5.08-4.07"/><path d="m9.96 27.93 5.08 4.07-5.08 4.07"/><path d="m44.37 44.37-24.74-24.74"/><path d="m44.7 50.46-.7-6.46 6.46.7"/><path d="m19.3 13.54.7 6.46-6.46-.7"/><path d="m23.25 22.75h18v18h-18z" transform="matrix(.70710678 -.70710678 .70710678 .70710678 -13 32.1)"/></g></svg>