<svg viewBox="0 0 64 64" xmlns="http://www.w3.org/2000/svg" xmlns:xlink="http://www.w3.org/1999/xlink"><linearGradient id="a" gradientTransform="matrix(-1 0 0 1 -970.2 0)" gradientUnits="userSpaceOnUse" x1="-989.28" x2="-1010.37" y1="52.39" y2="25.08"><stop offset="0" stop-color="#f2f2f2"/><stop offset="1" stop-color="#cfcfcf"/></linearGradient><linearGradient id="b" gradientTransform="matrix(0 -1 -1 0 -44.28 -1021.58)" gradientUnits="userSpaceOnUse" x1="-1062.77" x2="-1051.15" y1="-96.39" y2="-78.75"><stop offset=".02" stop-color="#fff"/><stop offset="1" stop-color="#fff" stop-opacity="0"/></linearGradient><circle cx="39.8" cy="22" fill="#efcc00" r="12.59"/><g fill="none" stroke-linecap="round" stroke-miterlimit="10" stroke-width="3"><path d="m39.8 2v4.44" stroke="#efcc00"/><path d="m39.8 37.56v4.44" stroke="#efcc00"/><path d="m19.8 22h4.45" stroke="#efcc00"/><path d="m55.36 22h4.44" stroke="#efcc00"/><path d="m25.66 7.86 3.14 3.14" stroke="#efcc00"/><path d="m50.8 33 3.14 3.14" stroke="#efcc00"/><path d="m25.66 36.14 3.14-3.14" stroke="#efcc00"/><path d="m50.8 11 3.14-3.14" stroke="#efcc00"/></g><path d="m23.5 15.9a17.49 17.49 0 0 1 15.5 9.32 13.75 13.75 0 1 1 6.92 25.62l-22.42.06a17.5 17.5 0 0 1 0-35z" fill="url(#a)"/><circle cx="45.89" cy="37.09" fill="url(#b)" r="13.75" transform="matrix(.26908792 -.96311562 .96311562 .26908792 -2.18 71.3)"/><path d="m37.84 54.5h10.22" fill="none" stroke="#a5a9aa" stroke-linecap="round" stroke-miterlimit="10" stroke-width="3"/><path d="m15.94 54.5h16.8" fill="none" stroke="#b9c1c6" stroke-linecap="round" stroke-miterlimit="10" stroke-width="3"/><path d="m33.23 59.5h11.32" fill="none" stroke="#a5a9aa" stroke-linecap="round" stroke-miterlimit="10" stroke-width="3"/><path d="m19.96 59.5h7.69" fill="none" stroke="#a5a9aa" stroke-linecap="round" stroke-miterlimit="10" stroke-width="3"/></svg>