<svg viewBox="0 0 64 64" xmlns="http://www.w3.org/2000/svg"><circle cx="32" cy="32" fill="#efcc00" r="17"/><path d="m32 5v6" fill="none" stroke="#efcc00" stroke-linecap="round" stroke-miterlimit="10" stroke-width="3"/><path d="m59 32h-6" fill="none" stroke="#efcc00" stroke-linecap="round" stroke-miterlimit="10" stroke-width="3"/><path d="m11 32h-6" fill="none" stroke="#efcc00" stroke-linecap="round" stroke-miterlimit="10" stroke-width="3"/><path d="m51.09 12.91-4.24 4.24" fill="none" stroke="#efcc00" stroke-linecap="round" stroke-miterlimit="10" stroke-width="3"/><path d="m17.15 17.15-4.24-4.24" fill="none" stroke="#efcc00" stroke-linecap="round" stroke-miterlimit="10" stroke-width="3"/><path d="m40.25 46.25a20.18 20.18 0 0 1 -16-9.75h-8.63a17 17 0 0 0 25.48 9.84c-.29-.03-.56-.07-.85-.09z" fill="#e0e0e0"/><g fill="none" stroke-linecap="round" stroke-miterlimit="10" stroke-width="3"><path d="m25.5 36.5h-11.67" stroke="#b9c1c6"/><path d="m7.54 41.5h11.68" stroke="#b9c1c6"/><path d="m4.85 46.5h49.01" stroke="#b9c1c6"/><path d="m34.49 51.5h21.16" stroke="#a5a9aa"/><path d="m4.85 51.5h22.45" stroke="#b9c1c6"/><path d="m26.4 56.5h19.35" stroke="#a5a9aa"/><path d="m6.64 56.5h13.48" stroke="#a5a9aa"/><path d="m24.61 41.5h6.28" stroke="#b9c1c6"/></g></svg>