<svg viewBox="0 0 64 64" xmlns="http://www.w3.org/2000/svg"><circle cx="32" cy="32" fill="#efcc00" r="17"/><g fill="none" stroke="#efcc00" stroke-linecap="round" stroke-miterlimit="10" stroke-width="3"><path d="m32 5v6"/><path d="m32 53v6"/><path d="m59 32h-6"/><path d="m11 32h-6"/><path d="m51.09 12.91-4.24 4.24"/><path d="m17.15 46.85-4.24 4.24"/><path d="m51.09 51.09-4.24-4.24"/><path d="m17.15 17.15-4.24-4.24"/></g><path d="m24.79 27.75v5.95c0 1.78.67 2.68 1.87 2.68s1.9-.86 1.9-2.68v-5.95h2.33v5.79c0 3.19-1.61 4.7-4.3 4.7s-4.14-1.44-4.14-4.73v-5.76z" fill="#fff"/><path d="m35.35 38.08-3.35-10.33h2.6l1.26 4.37c.35 1.23.67 2.41.92 3.69.26-1.24.58-2.47.93-3.65l1.32-4.41h2.48l-3.44 10.33z" fill="#fff"/></svg>