<svg viewBox="0 0 64 64" xmlns="http://www.w3.org/2000/svg" xmlns:xlink="http://www.w3.org/1999/xlink"><linearGradient id="a" gradientTransform="matrix(-1 0 0 1 65.8 0)" gradientUnits="userSpaceOnUse" x1="46.72" x2="25.63" y1="58.39" y2="31.08"><stop offset="0" stop-color="#f2f2f2"/><stop offset="1" stop-color="#cfcfcf"/></linearGradient><linearGradient id="b" gradientTransform="matrix(0 -1 -1 0 109.04 59.43)" gradientUnits="userSpaceOnUse" x1="12.25" x2="23.86" y1="56.93" y2="74.58"><stop offset=".02" stop-color="#fff"/><stop offset="1" stop-color="#fff" stop-opacity="0"/></linearGradient><circle cx="39.8" cy="28" fill="#efcc00" r="12.59"/><g fill="none" stroke="#efcc00" stroke-linecap="round" stroke-miterlimit="10" stroke-width="3"><path d="m39.8 8v4.44"/><path d="m39.8 43.56v4.44"/><path d="m19.8 28h4.45"/><path d="m55.36 28h4.44"/><path d="m25.66 13.86 3.14 3.14"/><path d="m50.8 39 3.14 3.14"/><path d="m25.66 42.14 3.14-3.14"/><path d="m50.8 17 3.14-3.14"/></g><path d="m23.5 21.9a17.49 17.49 0 0 1 15.5 9.32 13.75 13.75 0 1 1 6.92 25.62l-22.42.06a17.5 17.5 0 0 1 0-35z" fill="url(#a)"/><circle cx="45.89" cy="43.09" fill="url(#b)" r="13.75" transform="matrix(.26908792 -.96311562 .96311562 .26908792 -7.96 75.69)"/></svg>