<svg viewBox="0 0 64 64" xmlns="http://www.w3.org/2000/svg" xmlns:xlink="http://www.w3.org/1999/xlink"><linearGradient id="a" gradientTransform="matrix(-1 0 0 1 -230.2 0)" gradientUnits="userSpaceOnUse" x1="-249.28" x2="-270.37" y1="52.39" y2="25.08"><stop offset="0" stop-color="#f2f2f2"/><stop offset="1" stop-color="#cfcfcf"/></linearGradient><linearGradient id="b" gradientTransform="matrix(0 -1 -1 0 60.72 -255.41)" gradientUnits="userSpaceOnUse" x1="-296.59" x2="-284.98" y1="8.61" y2="26.25"><stop offset=".02" stop-color="#fff"/><stop offset="1" stop-color="#fff" stop-opacity="0"/></linearGradient><circle cx="39.8" cy="22" fill="#efcc00" r="12.59"/><g fill="none" stroke="#efcc00" stroke-linecap="round" stroke-miterlimit="10" stroke-width="3"><path d="m39.8 2v4.44"/><path d="m39.8 37.56v4.44"/><path d="m19.8 22h4.45"/><path d="m55.36 22h4.44"/><path d="m25.66 7.86 3.14 3.14"/><path d="m50.8 33 3.14 3.14"/><path d="m25.66 36.14 3.14-3.14"/><path d="m50.8 11 3.14-3.14"/></g><path d="m23.5 15.9a17.49 17.49 0 0 1 15.5 9.32 13.75 13.75 0 1 1 6.92 25.62l-22.42.06a17.5 17.5 0 0 1 0-35z" fill="url(#a)"/><circle cx="45.89" cy="37.09" fill="url(#b)" r="13.75" transform="matrix(.26908792 -.96311562 .96311562 .26908792 -2.18 71.3)"/><path d="m36.22 59.28a3.72 3.72 0 1 1 -7.44 0c0-3.26 3-6.28 3.72-6.28s3.72 3 3.72 6.28z" fill="#0baeff"/></svg>