<svg viewBox="0 0 64 64" xmlns="http://www.w3.org/2000/svg" xmlns:xlink="http://www.w3.org/1999/xlink"><linearGradient id="a" gradientTransform="matrix(-1 0 0 1 361.97 0)" gradientUnits="userSpaceOnUse" x1="342.72" x2="321.63" y1="46.39" y2="19.08"><stop offset="0" stop-color="#f2f2f2"/><stop offset="1" stop-color="#cfcfcf"/></linearGradient><linearGradient id="b" gradientTransform="matrix(0 -1 -1 0 194.46 313.11)" gradientUnits="userSpaceOnUse" x1="277.92" x2="289.54" y1="142.19" y2="159.83"><stop offset=".02" stop-color="#fff"/><stop offset="1" stop-color="#fff" stop-opacity="0"/></linearGradient><path d="m23.66 9.9a17.49 17.49 0 0 1 15.47 9.32 13.75 13.75 0 1 1 6.87 25.62l-22.39.06a17.5 17.5 0 0 1 0-35z" fill="url(#a)"/><circle cx="46.05" cy="31.09" fill="url(#b)" r="13.75" transform="matrix(.26908792 -.96311562 .96311562 .26908792 3.72 67.08)"/><path d="m36.22 53.28a3.72 3.72 0 1 1 -7.44 0c0-3.26 3-6.28 3.72-6.28s3.72 3 3.72 6.28z" fill="#0baeff"/></svg>